<svg width="48" height="48" viewBox="0 0 48 48" fill="none" xmlns="http://www.w3.org/2000/svg">
<path d="M24 0.00100708C10.7466 0.00100708 0 10.7455 0 24C0 37.2545 10.7455 47.9989 24 47.9989C37.2556 47.9989 48 37.2545 48 24C48 10.7455 37.2556 0.00100708 24 0.00100708ZM24 7.17697C28.3855 7.17697 31.9392 10.7317 31.9392 15.1151C31.9392 19.4996 28.3855 23.0533 24 23.0533C19.6166 23.0533 16.0629 19.4996 16.0629 15.1151C16.0629 10.7317 19.6166 7.17697 24 7.17697ZM23.9947 41.7243C19.6208 41.7243 15.6149 40.1314 12.525 37.4948C11.7723 36.8528 11.338 35.9114 11.338 34.9236C11.338 30.478 14.936 26.9201 19.3826 26.9201H28.6195C33.0672 26.9201 36.6515 30.478 36.6515 34.9236C36.6515 35.9125 36.2193 36.8518 35.4655 37.4938C32.3767 40.1314 28.3697 41.7243 23.9947 41.7243Z" fill="white"/>
</svg>
